<svg width="552" height="188" viewBox="0 0 552 188" fill="none" xmlns="http://www.w3.org/2000/svg">
<path fill-rule="evenodd" clip-rule="evenodd" d="M373 58C369.689 58 367 60.6761 367 63.9841C367 64.8654 367.287 65.8612 367.672 66.799C368.065 67.7565 368.596 68.7419 369.163 69.6289C369.729 70.5133 370.351 71.3301 370.937 71.9396C371.228 72.2427 371.533 72.5181 371.837 72.7251C372.11 72.9109 372.522 73.1404 373 73.1404C373.478 73.1404 373.89 72.9109 374.163 72.7251C374.467 72.5181 374.772 72.2427 375.063 71.9396C375.649 71.3301 376.271 70.5133 376.837 69.6289C377.404 68.7419 377.935 67.7565 378.328 66.799C378.713 65.8612 379 64.8654 379 63.9841C379 60.6761 376.311 58 373 58ZM369.055 63.9841C369.055 61.8174 370.818 60.0554 373 60.0554C375.182 60.0554 376.945 61.8174 376.945 63.9841C376.945 64.4715 376.772 65.1761 376.426 66.0191C376.089 66.8423 375.619 67.718 375.105 68.521C374.59 69.3265 374.049 70.0286 373.581 70.5155C373.346 70.7606 373.151 70.9278 373.006 71.0262L373 71.0305L372.994 71.0262C372.849 70.9278 372.654 70.7606 372.419 70.5155C371.951 70.0286 371.41 69.3265 370.895 68.521C370.381 67.718 369.911 66.8423 369.574 66.0191C369.228 65.1761 369.055 64.4715 369.055 63.9841ZM373.131 62.4307C372.192 62.4307 371.431 63.1917 371.431 64.1304C371.431 65.0691 372.192 65.8301 373.131 65.8301C374.07 65.8301 374.831 65.0691 374.831 64.1304C374.831 63.1917 374.07 62.4307 373.131 62.4307Z" fill="#E6E6E6"/>
<path fill-rule="evenodd" clip-rule="evenodd" d="M125 127C121.689 127 119 129.676 119 132.984C119 133.865 119.287 134.861 119.672 135.799C120.065 136.756 120.596 137.742 121.163 138.629C121.729 139.513 122.351 140.33 122.937 140.94C123.228 141.243 123.533 141.518 123.837 141.725C124.11 141.911 124.522 142.14 125 142.14C125.478 142.14 125.89 141.911 126.163 141.725C126.467 141.518 126.772 141.243 127.063 140.94C127.649 140.33 128.271 139.513 128.837 138.629C129.404 137.742 129.935 136.756 130.328 135.799C130.713 134.861 131 133.865 131 132.984C131 129.676 128.311 127 125 127ZM121.055 132.984C121.055 130.817 122.818 129.055 125 129.055C127.182 129.055 128.945 130.817 128.945 132.984C128.945 133.471 128.772 134.176 128.426 135.019C128.089 135.842 127.619 136.718 127.105 137.521C126.59 138.327 126.049 139.029 125.581 139.515C125.346 139.761 125.151 139.928 125.006 140.026L125 140.031L124.994 140.026C124.849 139.928 124.654 139.761 124.419 139.515C123.951 139.029 123.41 138.327 122.895 137.521C122.381 136.718 121.911 135.842 121.574 135.019C121.228 134.176 121.055 133.471 121.055 132.984ZM125.131 131.431C124.192 131.431 123.431 132.192 123.431 133.13C123.431 134.069 124.192 134.83 125.131 134.83C126.07 134.83 126.831 134.069 126.831 133.13C126.831 132.192 126.07 131.431 125.131 131.431Z" fill="#E6E6E6"/>
<path fill-rule="evenodd" clip-rule="evenodd" d="M499 85C495.689 85 493 87.6761 493 90.9841C493 91.8654 493.287 92.8612 493.672 93.799C494.065 94.7565 494.596 95.7419 495.163 96.6289C495.729 97.5133 496.351 98.3301 496.937 98.9396C497.228 99.2427 497.533 99.5181 497.837 99.7251C498.11 99.9109 498.522 100.14 499 100.14C499.478 100.14 499.89 99.9109 500.163 99.7251C500.467 99.5181 500.772 99.2427 501.063 98.9396C501.649 98.3301 502.271 97.5133 502.837 96.6289C503.404 95.7419 503.935 94.7565 504.328 93.799C504.713 92.8612 505 91.8654 505 90.9841C505 87.6761 502.311 85 499 85ZM495.055 90.9841C495.055 88.8174 496.818 87.0554 499 87.0554C501.182 87.0554 502.945 88.8174 502.945 90.9841C502.945 91.4715 502.772 92.1761 502.426 93.0191C502.089 93.8423 501.619 94.718 501.105 95.521C500.59 96.3265 500.049 97.0286 499.581 97.5155C499.346 97.7606 499.151 97.9278 499.006 98.0262L499 98.0305L498.994 98.0262C498.849 97.9278 498.654 97.7606 498.419 97.5155C497.951 97.0286 497.41 96.3265 496.895 95.521C496.381 94.718 495.911 93.8423 495.574 93.0191C495.228 92.1761 495.055 91.4715 495.055 90.9841ZM499.131 89.4307C498.192 89.4307 497.431 90.1917 497.431 91.1304C497.431 92.0691 498.192 92.8301 499.131 92.8301C500.07 92.8301 500.831 92.0691 500.831 91.1304C500.831 90.1917 500.07 89.4307 499.131 89.4307Z" fill="#E6E6E6"/>
<path fill-rule="evenodd" clip-rule="evenodd" d="M244 70C240.689 70 238 72.6761 238 75.9841C238 76.8654 238.287 77.8612 238.672 78.799C239.065 79.7565 239.596 80.7419 240.163 81.6289C240.729 82.5133 241.351 83.3301 241.937 83.9396C242.228 84.2427 242.533 84.5181 242.837 84.7251C243.11 84.9109 243.522 85.1404 244 85.1404C244.478 85.1404 244.89 84.9109 245.163 84.7251C245.467 84.5181 245.772 84.2427 246.063 83.9396C246.649 83.3301 247.271 82.5133 247.837 81.6289C248.404 80.7419 248.935 79.7565 249.328 78.799C249.713 77.8612 250 76.8654 250 75.9841C250 72.6761 247.311 70 244 70ZM240.055 75.9841C240.055 73.8174 241.818 72.0554 244 72.0554C246.182 72.0554 247.945 73.8174 247.945 75.9841C247.945 76.4715 247.772 77.1761 247.426 78.0191C247.089 78.8423 246.619 79.718 246.105 80.521C245.59 81.3265 245.049 82.0286 244.581 82.5155C244.346 82.7606 244.151 82.9278 244.006 83.0262L244 83.0305L243.994 83.0262C243.849 82.9278 243.654 82.7606 243.419 82.5155C242.951 82.0286 242.41 81.3265 241.895 80.521C241.381 79.718 240.911 78.8423 240.574 78.0191C240.228 77.1761 240.055 76.4715 240.055 75.9841ZM244.131 74.4307C243.192 74.4307 242.431 75.1917 242.431 76.1304C242.431 77.0691 243.192 77.8301 244.131 77.8301C245.07 77.8301 245.831 77.0691 245.831 76.1304C245.831 75.1917 245.07 74.4307 244.131 74.4307Z" fill="#E6E6E6"/>
<path d="M1 187C6.66667 175 64 184 72 168C81.3915 149.217 89.3636 161.5 98 156.5C117 145.5 131 150 140 156.5C170.56 178.571 165.348 130.488 180 133C215 139 234.467 85.3798 249 96C275 115 325.851 129.874 342 115C361 97.5 367 67 381 85.0002C388.953 95.2259 369.155 100.544 411 115C445 126.745 410 96 462 102C514 108 536 104 518 78C492.929 41.7862 548.333 30 551 1" stroke="#E6E6E6" stroke-width="2" stroke-linecap="round" stroke-dasharray="8 8"/>
</svg>
