<svg width="552" height="188" viewBox="0 0 552 188" fill="none" xmlns="http://www.w3.org/2000/svg">
<path fill-rule="evenodd" clip-rule="evenodd" d="M370 86C366.689 86 364 88.6761 364 91.9841C364 92.8654 364.287 93.8612 364.672 94.799C365.065 95.7565 365.596 96.7419 366.163 97.6289C366.729 98.5133 367.351 99.3301 367.937 99.9396C368.228 100.243 368.533 100.518 368.837 100.725C369.11 100.911 369.522 101.14 370 101.14C370.478 101.14 370.89 100.911 371.163 100.725C371.467 100.518 371.772 100.243 372.063 99.9396C372.649 99.3301 373.271 98.5133 373.837 97.6289C374.404 96.7419 374.935 95.7565 375.328 94.799C375.713 93.8612 376 92.8654 376 91.9841C376 88.6761 373.311 86 370 86ZM366.055 91.9841C366.055 89.8174 367.818 88.0554 370 88.0554C372.182 88.0554 373.945 89.8174 373.945 91.9841C373.945 92.4715 373.772 93.1761 373.426 94.0191C373.089 94.8423 372.619 95.718 372.105 96.521C371.59 97.3265 371.049 98.0286 370.581 98.5155C370.346 98.7606 370.151 98.9278 370.006 99.0262L370 99.0305L369.994 99.0262C369.849 98.9278 369.654 98.7606 369.419 98.5155C368.951 98.0286 368.41 97.3265 367.895 96.521C367.381 95.718 366.911 94.8423 366.574 94.0191C366.228 93.1761 366.055 92.4715 366.055 91.9841ZM370.131 90.4307C369.192 90.4307 368.431 91.1917 368.431 92.1304C368.431 93.0691 369.192 93.8301 370.131 93.8301C371.07 93.8301 371.831 93.0691 371.831 92.1304C371.831 91.1917 371.07 90.4307 370.131 90.4307Z" fill="#E6E6E6"/>
<path fill-rule="evenodd" clip-rule="evenodd" d="M125 127C121.689 127 119 129.676 119 132.984C119 133.865 119.287 134.861 119.672 135.799C120.065 136.756 120.596 137.742 121.163 138.629C121.729 139.513 122.351 140.33 122.937 140.94C123.228 141.243 123.533 141.518 123.837 141.725C124.11 141.911 124.522 142.14 125 142.14C125.478 142.14 125.89 141.911 126.163 141.725C126.467 141.518 126.772 141.243 127.063 140.94C127.649 140.33 128.271 139.513 128.837 138.629C129.404 137.742 129.935 136.756 130.328 135.799C130.713 134.861 131 133.865 131 132.984C131 129.676 128.311 127 125 127ZM121.055 132.984C121.055 130.817 122.818 129.055 125 129.055C127.182 129.055 128.945 130.817 128.945 132.984C128.945 133.471 128.772 134.176 128.426 135.019C128.089 135.842 127.619 136.718 127.105 137.521C126.59 138.327 126.049 139.029 125.581 139.515C125.346 139.761 125.151 139.928 125.006 140.026L125 140.031L124.994 140.026C124.849 139.928 124.654 139.761 124.419 139.515C123.951 139.029 123.41 138.327 122.895 137.521C122.381 136.718 121.911 135.842 121.574 135.019C121.228 134.176 121.055 133.471 121.055 132.984ZM125.131 131.431C124.192 131.431 123.431 132.192 123.431 133.13C123.431 134.069 124.192 134.83 125.131 134.83C126.07 134.83 126.831 134.069 126.831 133.13C126.831 132.192 126.07 131.431 125.131 131.431Z" fill="#E6E6E6"/>
<path fill-rule="evenodd" clip-rule="evenodd" d="M499 92C495.689 92 493 94.6761 493 97.9841C493 98.8654 493.287 99.8612 493.672 100.799C494.065 101.756 494.596 102.742 495.163 103.629C495.729 104.513 496.351 105.33 496.937 105.94C497.228 106.243 497.533 106.518 497.837 106.725C498.11 106.911 498.522 107.14 499 107.14C499.478 107.14 499.89 106.911 500.163 106.725C500.467 106.518 500.772 106.243 501.063 105.94C501.649 105.33 502.271 104.513 502.837 103.629C503.404 102.742 503.935 101.756 504.328 100.799C504.713 99.8612 505 98.8654 505 97.9841C505 94.6761 502.311 92 499 92ZM495.055 97.9841C495.055 95.8174 496.818 94.0554 499 94.0554C501.182 94.0554 502.945 95.8174 502.945 97.9841C502.945 98.4715 502.772 99.1761 502.426 100.019C502.089 100.842 501.619 101.718 501.105 102.521C500.59 103.327 500.049 104.029 499.581 104.515C499.346 104.761 499.151 104.928 499.006 105.026L499 105.031L498.994 105.026C498.849 104.928 498.654 104.761 498.419 104.515C497.951 104.029 497.41 103.327 496.895 102.521C496.381 101.718 495.911 100.842 495.574 100.019C495.228 99.1761 495.055 98.4715 495.055 97.9841ZM499.131 96.4307C498.192 96.4307 497.431 97.1917 497.431 98.1304C497.431 99.0691 498.192 99.8301 499.131 99.8301C500.07 99.8301 500.831 99.0691 500.831 98.1304C500.831 97.1917 500.07 96.4307 499.131 96.4307Z" fill="#E6E6E6"/>
<path fill-rule="evenodd" clip-rule="evenodd" d="M264 62C260.689 62 258 64.6761 258 67.9841C258 68.8654 258.287 69.8612 258.672 70.799C259.065 71.7565 259.596 72.7419 260.163 73.6289C260.729 74.5133 261.351 75.3301 261.937 75.9396C262.228 76.2427 262.533 76.5181 262.837 76.7251C263.11 76.9109 263.522 77.1404 264 77.1404C264.478 77.1404 264.89 76.9109 265.163 76.7251C265.467 76.5181 265.772 76.2427 266.063 75.9396C266.649 75.3301 267.271 74.5133 267.837 73.6289C268.404 72.7419 268.935 71.7565 269.328 70.799C269.713 69.8612 270 68.8654 270 67.9841C270 64.6761 267.311 62 264 62ZM260.055 67.9841C260.055 65.8174 261.818 64.0554 264 64.0554C266.182 64.0554 267.945 65.8174 267.945 67.9841C267.945 68.4715 267.772 69.1761 267.426 70.0191C267.089 70.8423 266.619 71.718 266.105 72.521C265.59 73.3265 265.049 74.0286 264.581 74.5155C264.346 74.7606 264.151 74.9278 264.006 75.0262L264 75.0305L263.994 75.0262C263.849 74.9278 263.654 74.7606 263.419 74.5155C262.951 74.0286 262.41 73.3265 261.895 72.521C261.381 71.718 260.911 70.8423 260.574 70.0191C260.228 69.1761 260.055 68.4715 260.055 67.9841ZM264.131 66.4307C263.192 66.4307 262.431 67.1917 262.431 68.1304C262.431 69.0691 263.192 69.8301 264.131 69.8301C265.07 69.8301 265.831 69.0691 265.831 68.1304C265.831 67.1917 265.07 66.4307 264.131 66.4307Z" fill="#E6E6E6"/>
<path d="M1 187C6.66667 175 64 184 72 168C81.3915 149.217 89.3636 161.5 98 156.5C117 145.5 131 150 140 156.5C170.56 178.571 189.348 135.488 204 138C239 144 251.467 74.3799 266 85.0002C292 104 325.851 129.874 342 115C361 97.5 369.5 105.471 375 110C385 118.235 369.155 135.544 411 150C466 169 414 104 466 110C518 116 536 104 518 78C492.929 41.7862 548.333 30 551 1" stroke="#E6E6E6" stroke-width="2" stroke-linecap="round" stroke-dasharray="8 8"/>
</svg>
